Coordinates
version=1
nRows=32
nColumns=22
inDegrees=yes

Units are S.I. units (second, meters, Newtons, ...)
If the header above contains a line with 'inDegrees', this indicates whether rotational values are in degrees (yes) or radians (no).

endheader
time	pelvis_tilt	pelvis_list	pelvis_rotation	pelvis_tx	pelvis_ty	pelvis_tz	hip_flexion_r	hip_adduction_r	hip_rotation_r	knee_angle_r	ankle_angle_r	subtalar_angle_r	hip_flexion_l	hip_adduction_l	hip_rotation_l	knee_angle_l	ankle_angle_l	subtalar_angle_l	lumbar_extension	lumbar_bending	lumbar_rotation
      0.01000000	    -11.42277456	      4.46787605	    -23.45259408	     -1.21226452	      0.97419852	     -0.49025846	     23.04081466	      0.39031928	     -1.77850999	    -25.30307423	     19.75418830	     -4.73940455	     20.26240008	      1.13308979	     -4.11037914	    -20.23075451	     19.03829957	     -2.13185461	      3.33765858	      1.08201250	      6.08595367
      0.02000000	    -11.43080807	      4.46538158	    -23.44984644	     -1.21241831	      0.97424158	     -0.49033460	     23.03524388	      0.39227401	     -1.78947203	    -25.26026269	     19.73960770	     -4.73318121	     20.26798525	      1.12794667	     -4.11897394	    -20.20673910	     19.02327963	     -2.12380545	      3.33209290	      1.08518213	      6.09329518
      0.03000000	    -11.43866254	      4.45905400	    -23.44612872	     -1.21260924	      0.97430449	     -0.49042924	     23.02522734	      0.39786991	     -1.79883126	    -25.20759654	     19.71325090	     -4.72371580	     20.26718391	      1.12146156	     -4.11610402	    -20.16867496	     18.99024715	     -2.11353683	      3.32075549	      1.09180854	      6.09688950
      0.04000000	    -11.44365375	      4.44880197	    -23.43946658	     -1.21283625	      0.97438370	     -0.49054511	     23.01017919	      0.40448846	     -1.81184411	    -25.14972575	     19.67847941	     -4.71173892	     20.26274451	      1.11449120	     -4.10278678	    -20.12667581	     18.94870870	     -2.10314815	      3.29984019	      1.10036019	      6.09589698
      0.05000000	    -11.43379973	      4.42142333	    -23.42265305	     -1.21310086	      0.97449886	     -0.49069326	     22.97719403	      0.41750366	     -1.83445181	    -25.09567684	     19.62918581	     -4.69155187	     20.24089680	      1.10266631	     -4.06445532	    -20.08660050	     18.90117161	     -2.08949044	      3.24606399	      1.11926317	      6.07543540
      0.06000000	    -11.44317672	      4.41563269	    -23.41340771	     -1.21336781	      0.97456727	     -0.49083039	     22.97057284	      0.41924848	     -1.85860167	    -25.03601769	     19.61225532	     -4.68462629	     20.24547829	      1.09788762	     -4.06056559	    -20.04476699	     18.87949202	     -2.08709526	      3.22957581	      1.12369561	      6.07418753
      0.07000000	    -11.45334219	      4.39922234	    -23.39324671	     -1.21365282	      0.97465200	     -0.49098554	     22.96064761	      0.42960072	     -1.88476274	    -24.97656385	     19.56645498	     -4.67286522	     20.24681856	      1.08775229	     -4.03194433	    -19.99837867	     18.82937362	     -2.08406062	      3.20550683	      1.13750382	      6.05722165
      0.08000000	    -11.45568547	      4.37090985	    -23.35799803	     -1.21395949	      0.97474196	     -0.49116952	     22.94474248	      0.44253879	     -1.92636185	    -24.92970041	     19.51560010	     -4.65877176	     20.24736329	      1.07501989	     -3.97784161	    -19.96982418	     18.78871660	     -2.08597687	      3.16041222	      1.15866452	      6.01937508
      0.09000000	    -11.46476247	      4.35478330	    -23.33435195	     -1.21424891	      0.97481352	     -0.49132735	     22.93959721	      0.45021977	     -1.96239702	    -24.88065968	     19.47895554	     -4.64957135	     20.25420319	      1.06543047	     -3.94923914	    -19.93483419	     18.75442668	     -2.09010326	      3.13433182	      1.17070254	      5.99221848
      0.10000000	    -11.46970356	      4.35333967	    -23.33203411	     -1.21456720	      0.97485547	     -0.49145903	     22.95455807	      0.45200640	     -1.96843315	    -24.86116311	     19.47741229	     -4.64889021	     20.26996694	      1.06270407	     -3.95134877	    -19.91573651	     18.75298785	     -2.09033513	      3.10626161	      1.16593831	      5.99029044
      0.11000000	    -11.48228628	      4.33479765	    -23.30096845	     -1.21482112	      0.97492686	     -0.49161090	     22.94763578	      0.46038660	     -2.01684011	    -24.80747933	     19.40621551	     -4.63608595	     20.27828083	      1.05195354	     -3.91017092	    -19.88123786	     18.68997477	     -2.09555814	      3.08808306	      1.18224831	      5.94420499
      0.12000000	    -11.48562422	      4.33410986	    -23.30406523	     -1.21510225	      0.97496169	     -0.49171934	     22.96115117	      0.46210289	     -2.02287301	    -24.79094676	     19.40539989	     -4.63559939	     20.29181012	      1.04889993	     -3.91161233	    -19.86596747	     18.68947177	     -2.09594049	      3.06388904	      1.17736540	      5.94038248
      0.13000000	    -11.49116665	      4.32375713	    -23.29358992	     -1.21532818	      0.97501892	     -0.49183461	     22.95837891	      0.46654678	     -2.05506765	    -24.75238789	     19.35039015	     -4.62603777	     20.29856318	      1.04090530	     -3.89971374	    -19.84288975	     18.64686816	     -2.10378184	      3.04536225	      1.18643998	      5.90183483
      0.14000000	    -11.49277673	      4.32351218	    -23.30337923	     -1.21557085	      0.97504372	     -0.49191050	     22.97009355	      0.46944111	     -2.06022876	    -24.73941080	     19.34969154	     -4.62562585	     20.30962383	      1.03665281	     -3.89966382	    -19.83222548	     18.64636512	     -2.10419154	      3.02509620	      1.17945276	      5.89696796
      0.15000000	    -11.49354236	      4.32400384	    -23.31775835	     -1.21579117	      0.97506674	     -0.49197772	     22.98074717	      0.47194848	     -2.06493513	    -24.72712147	     19.34696836	     -4.62495964	     20.31952588	      1.03284785	     -3.90014507	    -19.82351640	     18.64436235	     -2.10465156	      3.00683926	      1.17371001	      5.89012801
      0.16000000	    -11.48905623	      4.32278845	    -23.34295504	     -1.21600294	      0.97510282	     -0.49202464	     22.98744557	      0.48008957	     -2.04958330	    -24.71725632	     19.29817887	     -4.61736455	     20.32245276	      1.02358218	     -3.92966271	    -19.81463247	     18.61406161	     -2.11162725	      2.98306619	      1.17095605	      5.86537537
      0.17000000	    -11.48833280	      4.32447538	    -23.36588234	     -1.21618734	      0.97511553	     -0.49207434	     22.99652536	      0.48250838	     -2.05346296	    -24.70615734	     19.29679815	     -4.61686933	     20.33059055	      1.02036131	     -3.92823815	    -19.81120360	     18.61301364	     -2.11210667	      2.96783129	      1.16472600	      5.86115964
      0.18000000	    -11.47067321	      4.33471337	    -23.43937633	     -1.21639043	      0.97515027	     -0.49204776	     23.00166919	      0.49501237	     -1.97653519	    -24.70458606	     19.24969274	     -4.60739920	     20.32185907	      1.01039719	     -4.01009935	    -19.80887727	     18.59329266	     -2.12848053	      2.93801478	      1.14561592	      5.90614963
      0.19000000	    -11.46214076	      4.33823472	    -23.47750595	     -1.21656167	      0.97515774	     -0.49208164	     23.01537648	      0.49925540	     -1.95563698	    -24.71676439	     19.24821532	     -4.60672954	     20.32304049	      1.00833252	     -4.01924653	    -19.81027239	     18.59311130	     -2.13100266	      2.91660148	      1.13782576	      5.89716550
      0.20000000	    -11.44431739	      4.36151671	    -23.54704373	     -1.21674423	      0.97517179	     -0.49206355	     23.03037273	      0.49650935	     -1.88257867	    -24.72586909	     19.23783812	     -4.60097061	     20.31653500	      1.01331305	     -4.10012729	    -19.80302788	     18.58852829	     -2.14210551	      2.89213268	      1.10143459	      5.94501743
      0.21000000	    -11.43540451	      4.36648354	    -23.58310207	     -1.21690609	      0.97517401	     -0.49211837	     23.04830465	      0.49825842	     -1.85496020	    -24.74524859	     19.23412691	     -4.59937362	     20.31826105	      1.01453163	     -4.11222945	    -19.80395008	     18.58563313	     -2.14453163	      2.86711465	      1.09328518	      5.93644550
      0.22000000	    -11.41691547	      4.39604133	    -23.65269981	     -1.21705082	      0.97517693	     -0.49211738	     23.06846507	      0.48632633	     -1.78465405	    -24.76382945	     19.23066809	     -4.59176004	     20.31154726	      1.02887320	     -4.18973999	    -19.79661946	     18.57996885	     -2.15639041	      2.84880734	      1.05341223	      5.98064637
      0.23000000	    -11.40289754	      4.41166776	    -23.69850918	     -1.21718868	      0.97517656	     -0.49215404	     23.08778805	      0.48012375	     -1.73981379	    -24.78769807	     19.22985715	     -4.58548679	     20.30926725	      1.03804252	     -4.22535930	    -19.79694070	     18.57649628	     -2.16533494	      2.82565312	      1.02864829	      5.98849383
      0.24000000	    -11.39504750	      4.41733768	    -23.73074016	     -1.21731368	      0.97517066	     -0.49222355	     23.10847815	      0.47925068	     -1.71359988	    -24.81377676	     19.22735748	     -4.58285201	     20.30892276	      1.04183138	     -4.24255432	    -19.79332912	     18.57498453	     -2.17013686	      2.80255949	      1.02057249	      5.97733206
      0.25000000	    -11.37598489	      4.44794381	    -23.78962791	     -1.21742151	      0.97516261	     -0.49225320	     23.13286417	      0.45982763	     -1.65270508	    -24.84438065	     19.22959562	     -4.57267974	     20.30272273	      1.06293798	     -4.31039165	    -19.78973043	     18.57352255	     -2.18982757	      2.78282580	      0.97947153	      6.00453037
      0.26000000	    -11.37108375	      4.44894330	    -23.81872655	     -1.21750151	      0.97515344	     -0.49233365	     23.15187505	      0.46102896	     -1.63443536	    -24.87005529	     19.22898712	     -4.57098190	     20.29989788	      1.06423673	     -4.31657111	    -19.78553536	     18.57235823	     -2.19370632	      2.76377696	      0.98062230	      5.98403542
      0.27000000	    -11.35331359	      4.47647642	    -23.86822204	     -1.21759797	      0.97513815	     -0.49238454	     23.17835172	      0.44143484	     -1.57832310	    -24.90680934	     19.23349934	     -4.55838169	     20.29419031	      1.08567635	     -4.37876580	    -19.78174182	     18.57776718	     -2.22110180	      2.73651439	      0.94253276	      5.99558052
      0.28000000	    -11.35090532	      4.47679958	    -23.89637764	     -1.21764909	      0.97512302	     -0.49246556	     23.19871818	      0.44359135	     -1.56063419	    -24.93404853	     19.23339253	     -4.55624830	     20.28960802	      1.08642610	     -4.38581198	    -19.77435844	     18.57829784	     -2.22663959	      2.71661786	      0.94572410	      5.97079407
      0.29000000	    -11.34544328	      4.48270699	    -23.92755533	     -1.21769873	      0.97510160	     -0.49254273	     23.22048220	      0.44051134	     -1.53524661	    -24.96418516	     19.23180559	     -4.55273520	     20.28660146	      1.09196422	     -4.40371559	    -19.77305370	     18.58605032	     -2.23662028	      2.69182308	      0.94077977	      5.94330233
      0.30000000	    -11.33190668	      4.50933516	    -23.97828584	     -1.21774651	      0.97507424	     -0.49258728	     23.24595049	      0.42259611	     -1.48364757	    -24.99716340	     19.24095330	     -4.53791313	     20.28238373	      1.11148895	     -4.46601608	    -19.77139320	     18.60827595	     -2.27730522	      2.66611569	      0.90731113	      5.94713734
      0.31000000	    -11.33339815	      4.51033042	    -24.01213776	     -1.21774656	      0.97504799	     -0.49265565	     23.26607318	      0.42579194	     -1.46697505	    -25.02126449	     19.24122301	     -4.53573713	     20.27733180	      1.11137366	     -4.47061403	    -19.76419261	     18.61062254	     -2.28433167	      2.64701694	      0.91546223	      5.91666503
      0.32000000	    -11.33314732	      4.51778918	    -24.04728075	     -1.21776833	      0.97501440	     -0.49271402	     23.28987224	      0.42621313	     -1.43334149	    -25.04791359	     19.24121094	     -4.53034012	     20.27808886	      1.11449714	     -4.49192431	    -19.76339043	     18.62817650	     -2.30223805	      2.61847112	      0.91102161	      5.88248830
